<svg width="179" height="65" viewBox="0 0 179 65" fill="none" xmlns="http://www.w3.org/2000/svg">
<g clip-path="url(#clip0_1061_2518)">
<path d="M166.393 24.6488C166.486 25.8336 166.565 27.0544 166.637 28.3042C166.716 29.7779 166.802 31.23 166.896 32.6531C166.909 32.8611 166.922 33.0656 166.935 33.2669C166.977 33.9393 167.017 34.5756 167.061 35.1815L172.062 20.7623C172.795 18.7468 173.549 17.2514 174.332 16.2834C175.115 15.3154 176.006 14.8241 177.019 14.8241C177.673 14.8241 178.162 15.0192 178.5 15.402C178.902 15.8644 179.06 16.4712 178.981 17.2297C178.923 17.7499 178.744 18.2628 178.435 18.6818C177.925 19.3825 177.113 20.0038 175.999 20.5456C175.475 20.7912 175.008 21.0513 174.584 21.333C174.16 21.6147 173.779 21.9543 173.434 22.366C173.089 22.7778 172.766 23.269 172.457 23.8542C172.148 24.4393 171.839 25.1617 171.53 26.0286L166.278 40.1517C165.086 43.4946 163.646 48.3817 160.306 50.3769C156.966 52.3722 152.931 51.2618 151.563 49.2165C150.196 47.1713 149.731 45.2996 148.369 44.2738C147.324 43.4872 145.596 43.4342 144.472 44.5189C143.804 45.1711 143.481 46.0118 143.495 47.0481C143.466 47.6062 143.545 48.1497 143.754 48.686C143.955 49.2223 144.343 49.8093 144.918 50.4615C145.486 51.1138 146.319 51.8892 147.411 52.7879C148.439 53.6938 149.237 54.4909 149.804 55.1867C150.372 55.8824 150.76 56.5564 150.968 57.1941C151.177 57.8319 151.234 58.5349 151.155 59.2886C151.054 60.3756 150.631 61.354 149.869 62.2309C149.114 63.1078 148.116 63.789 146.887 64.2746C145.658 64.7601 144.235 64.9993 142.626 64.9993C141.11 64.9993 139.83 64.7746 138.781 64.3181C137.732 63.8688 136.935 63.2817 136.389 62.557C135.842 61.8323 135.562 61.0786 135.548 60.2887C135.548 59.7161 135.692 59.2451 135.979 58.8827C136.266 58.5204 136.654 58.3392 137.136 58.3392C137.689 58.3392 138.149 58.5421 138.501 58.9407C138.86 59.3465 139.184 60.006 139.478 60.9264C139.953 62.028 140.47 62.7962 141.03 63.2455C141.591 63.6876 142.245 63.9122 142.999 63.9122V63.9195C143.941 63.9195 144.724 63.6151 145.342 63.0063C145.96 62.3976 146.276 61.6511 146.298 60.767C146.298 60.2742 146.197 59.8031 146.003 59.3465C145.809 58.8972 145.457 58.3754 144.954 57.7956C144.451 57.2159 143.768 56.5491 142.899 55.8099C141.821 54.875 140.98 54.0489 140.355 53.3459C139.737 52.6429 139.299 51.9472 139.033 51.266C138.774 50.5847 138.659 49.8383 138.688 49.0338C138.767 47.8526 139.169 46.7655 139.895 45.7726C140.621 44.7798 141.634 43.9826 142.935 43.3956C144.235 42.8013 145.751 42.5114 147.476 42.5114C148.913 42.5114 150.12 42.6998 151.105 43.0694C152.631 43.6426 154.328 45.0238 155.01 46.3867C155.693 47.7496 158.208 48.4289 159.602 47.7355C161.21 46.9351 161.888 44.6598 162.362 42.9835C162.592 42.1961 162.714 41.4303 162.729 40.6718C162.714 40.26 162.671 39.5521 162.606 38.5335C162.542 37.5149 162.463 36.3229 162.362 34.9503C162.326 34.4519 162.29 33.9462 162.254 33.4333C162.209 32.7981 162.161 32.1489 162.111 31.4857V31.4817C162.089 31.1957 162.068 30.9071 162.046 30.6159L162.013 30.1809C161.952 29.3764 161.892 28.5823 161.838 27.7985C161.818 27.5444 161.799 27.2919 161.781 27.0409C161.76 26.7499 161.739 26.4599 161.716 26.1731C161.608 24.7211 161.507 23.428 161.414 22.2938C161.388 22.0173 161.365 21.7551 161.344 21.5081C161.31 21.123 161.279 20.7741 161.248 20.4661C161.141 19.9099 160.983 19.5125 160.789 19.2814C160.35 18.7757 160.085 17.8293 160.192 17.1719C160.358 16.2039 160.983 15.3515 161.888 14.9758C162.183 14.853 162.477 14.7663 162.786 14.7085C163.713 14.5424 164.41 14.788 164.891 15.4454C165.373 16.1028 165.696 17.0925 165.861 18.4217C165.991 19.3392 166.098 20.3288 166.177 21.3908C166.256 22.4527 166.335 23.5363 166.4 24.6488H166.393Z" fill="white"/>
<path d="M127.175 14.7314C128.965 14.782 130.466 15.2371 131.68 16.0968C132.895 16.9564 133.771 18.1412 134.317 19.6582C134.863 21.1753 135 22.9452 134.72 24.9751C134.49 26.7089 134.044 28.3126 133.376 29.7863C132.708 31.2601 131.831 32.5459 130.746 33.6512C129.661 34.7565 128.411 35.6162 126.981 36.2302C125.552 36.8443 124.007 37.1477 122.326 37.1477C120.644 37.1477 119.128 36.7431 117.864 35.934C116.599 35.1249 115.672 33.9619 115.076 32.4592C114.48 30.9494 114.336 29.1579 114.652 27.0773C114.846 25.2569 115.299 23.5881 116.01 22.0638C116.721 20.5396 117.619 19.2248 118.719 18.1195C119.818 17.0142 121.083 16.1618 122.52 15.5622C123.949 14.9626 125.501 14.6808 127.161 14.717L127.175 14.7314ZM122.534 35.9268C123.087 35.9123 123.684 35.6234 124.316 35.0671C124.948 34.5109 125.559 33.7524 126.148 32.7916C126.737 31.8308 127.269 30.7616 127.757 29.5768C128.246 28.3921 128.663 27.1712 129 25.9142C129.338 24.6573 129.575 23.4508 129.712 22.2878C129.92 20.7852 129.934 19.5715 129.733 18.6613C129.539 17.7511 129.209 17.0792 128.742 16.6458C128.275 16.2123 127.736 15.9884 127.118 15.9739C126.486 15.9378 125.839 16.1979 125.185 16.7469C124.531 17.2959 123.906 18.0472 123.296 18.9936C122.685 19.94 122.124 21.0236 121.621 22.2228C121.119 23.4292 120.687 24.6789 120.335 25.9793C119.983 27.2796 119.739 28.551 119.588 29.8008C119.394 31.289 119.394 32.4881 119.603 33.3839C119.804 34.2869 120.17 34.9299 120.687 35.3272C121.212 35.7173 121.823 35.9196 122.52 35.9196H122.534V35.9268Z" fill="white"/>
<path d="M81.9303 28.3042C81.8584 27.0544 81.7794 25.8336 81.686 24.6488H81.6932C81.6285 23.5363 81.5495 22.4527 81.4704 21.3908C81.3914 20.3288 81.2836 19.3392 81.1543 18.4217C80.989 17.0925 80.6657 16.1028 80.1843 15.4454C79.7029 14.788 79.006 14.5424 78.0791 14.7085C77.7702 14.7663 77.4756 14.853 77.181 14.9758C76.2757 15.3515 75.6506 16.2039 75.4854 17.1719C75.3776 17.8293 75.6434 18.7757 76.0817 19.2814C76.2757 19.5125 76.4338 19.9099 76.5416 20.4661C76.5722 20.7743 76.6029 21.1227 76.6368 21.508C76.6585 21.755 76.6816 22.0173 76.7068 22.2938C76.8002 23.428 76.9008 24.7211 77.0086 26.1731C77.0317 26.46 77.0528 26.749 77.074 27.04C77.0923 27.2913 77.1107 27.5441 77.1307 27.7985C77.1855 28.5822 77.2455 29.3762 77.3062 30.1806C77.3172 30.3254 77.3281 30.4705 77.3391 30.6159C77.3607 30.9072 77.3823 31.1958 77.4038 31.4819C77.4535 32.1465 77.5022 32.7969 77.5475 33.4333C77.5834 33.9462 77.6193 34.4519 77.6552 34.9503C77.7558 36.3229 77.8349 37.5149 77.8995 38.5335C77.9642 39.5521 78.0073 40.26 78.0217 40.6718C78.0073 41.4303 77.8852 42.1961 77.6552 42.9835C77.4325 43.7709 77.0948 44.4861 76.6565 45.1435C76.2182 45.8009 75.7081 46.3282 75.1333 46.7183C75.0899 46.748 75.0442 46.7821 74.9948 46.819C74.6963 47.0418 74.265 47.3637 73.4171 47.3859C72.6802 47.3777 72.0401 47.1533 71.49 46.7194C70.9295 46.27 70.4121 45.5019 69.9379 44.4003C69.6433 43.4799 69.3199 42.8204 68.9606 42.4146C68.6085 42.016 68.1486 41.8131 67.5953 41.8131C67.1139 41.8131 66.7259 41.9942 66.4384 42.3566C66.151 42.719 66.0073 43.19 66.0073 43.7625C66.0217 44.5525 66.3019 45.3062 66.848 46.0309C67.3941 46.7556 68.1918 47.3426 69.2409 47.792C70.29 48.2485 71.569 48.4732 73.0852 48.4732C73.7694 48.4732 75.1356 48.1938 75.6611 47.9192C76.8973 47.4068 78.1008 46.3693 79.0419 45.1146C80.0119 43.8215 80.8525 42.1672 81.571 40.1517L86.8232 26.0286C87.1322 25.1617 87.4411 24.4393 87.7501 23.8542C88.059 23.269 88.3824 22.7778 88.7272 22.366C89.0721 21.9543 89.4529 21.6147 89.8768 21.333C90.3007 21.0513 90.7678 20.7912 91.2923 20.5456C92.4059 20.0038 93.2178 19.3825 93.728 18.6818C94.0369 18.2628 94.2165 17.7499 94.274 17.2297C94.3531 16.4712 94.195 15.8644 93.7926 15.402C93.455 15.0192 92.9664 14.8241 92.3125 14.8241C91.2995 14.8241 90.4085 15.3154 89.6254 16.2834C88.8422 17.2514 88.0878 18.7468 87.3549 20.7623L82.3542 35.1815C82.3099 34.5754 82.27 33.9393 82.2277 33.2667C82.215 33.0655 82.2022 32.861 82.1889 32.6531C82.0955 31.23 82.0093 29.7779 81.9303 28.3042Z" fill="white"/>
<path d="M118.093 58.5924C117.705 60.0661 117.547 61.0558 117.626 61.5542C117.705 62.0527 117.956 62.3055 118.38 62.3055C118.704 62.3055 119.056 62.1755 119.415 61.9154C119.781 61.6554 120.248 61.1858 120.823 60.514C120.952 60.3695 121.053 60.2756 121.118 60.2322C121.182 60.1889 121.24 60.1889 121.29 60.2178C121.434 60.2178 121.52 60.2972 121.534 60.4634C121.549 60.6295 121.491 60.8535 121.362 61.1497C120.73 62.3272 119.889 63.2663 118.847 63.9598C117.805 64.6533 116.649 65.0001 115.377 65.0001C114.464 65.0001 113.789 64.7762 113.351 64.3355C112.913 63.8948 112.69 63.2519 112.69 62.4211C112.69 62.096 112.719 61.6915 112.79 61.2147C112.855 60.7379 112.963 60.1744 113.107 59.517C113.25 58.8597 113.444 58.1156 113.681 57.2704C113.918 56.4251 114.177 55.4788 114.45 54.4313L114.745 54.8503C113.882 56.9814 112.956 58.8019 111.971 60.3117C110.987 61.8287 109.924 62.9846 108.781 63.7865C107.639 64.5883 106.396 64.9929 105.045 64.9929C103.479 64.9929 102.279 64.3933 101.438 63.2013C100.598 62.0093 100.324 60.1817 100.619 57.7255C100.784 56.2012 101.158 54.7058 101.754 53.2321C102.351 51.7584 103.141 50.3858 104.125 49.1144C105.11 47.843 106.245 46.7232 107.524 45.748C108.803 44.7727 110.211 44.0142 111.749 43.4652C113.286 42.9162 114.903 42.6416 116.598 42.6416C117.784 42.6416 118.833 42.7356 119.738 42.9234C120.644 43.1112 121.34 43.3424 121.836 43.6097C122.332 43.877 122.562 44.1515 122.533 44.4332C122.519 44.6644 122.433 44.8378 122.275 44.9606C122.116 45.0834 121.951 45.2134 121.772 45.3434C121.592 45.4735 121.47 45.6902 121.405 45.9792L118.086 58.5779V58.5924H118.093ZM105.828 58.0722C105.548 59.741 105.598 60.9474 105.972 61.6843C106.345 62.4211 106.856 62.7895 107.509 62.7895C108.077 62.7895 108.688 62.5295 109.327 62.0166C109.974 61.5037 110.613 60.7524 111.246 59.7843C111.878 58.8091 112.503 57.646 113.114 56.2951C113.724 54.9442 114.314 53.4199 114.881 51.7295C115.449 50.0319 115.973 48.2186 116.448 46.2898C116.627 45.5168 116.656 44.9244 116.534 44.5055C116.412 44.0865 116.067 43.877 115.492 43.877C114.615 43.877 113.739 44.1515 112.877 44.7005C112.014 45.2495 111.195 45.9864 110.419 46.9255C109.643 47.8574 108.939 48.9338 108.293 50.1547C107.646 51.3755 107.114 52.6542 106.69 53.9979C106.266 55.3415 105.972 56.6997 105.814 58.0722H105.828Z" fill="white"/>
<path d="M127.484 44.6499L125.674 44.3537C125.53 44.2742 125.422 44.1875 125.357 44.1081C125.293 44.0286 125.257 43.9275 125.257 43.8119C125.257 43.6457 125.322 43.5157 125.451 43.4073C125.58 43.299 125.76 43.2484 125.99 43.2484H128.26C128.469 43.2484 128.648 43.2123 128.799 43.14C128.943 43.0678 129.101 42.9378 129.266 42.7572L133.441 39.0946C133.541 38.9645 133.649 38.8562 133.785 38.7623C133.915 38.6756 134.066 38.625 134.224 38.625C134.403 38.625 134.54 38.6756 134.64 38.7839C134.741 38.8923 134.784 39.0368 134.784 39.2174C134.784 39.333 134.763 39.4702 134.727 39.6364C134.691 39.8025 134.633 40.0192 134.569 40.301L129.245 58.8668C128.857 60.2611 128.756 61.2002 128.95 61.677C129.144 62.161 129.525 62.3994 130.1 62.3994C130.602 62.3994 131.127 62.2116 131.673 61.8359C132.219 61.4602 132.808 60.8607 133.448 60.0443C133.613 59.8782 133.735 59.777 133.814 59.7265C133.893 59.6759 133.987 59.6687 134.08 59.7048C134.181 59.7048 134.238 59.7626 134.252 59.8854C134.267 60.0082 134.252 60.1671 134.202 60.3622C133.857 61.0196 133.455 61.6192 132.981 62.1682C132.507 62.7172 131.953 63.2085 131.321 63.6419C130.689 64.0754 129.999 64.4149 129.266 64.6461C128.533 64.8845 127.743 65 126.895 65C125.904 65 125.142 64.805 124.625 64.4077C124.107 64.0103 123.791 63.4107 123.698 62.6016C123.597 61.7926 123.734 60.7667 124.086 59.517L127.851 46.3981C128.045 45.8274 128.109 45.4084 128.045 45.1483C127.98 44.8883 127.793 44.7149 127.484 44.6354V44.6499ZM132.147 44.4765L132.614 43.2701H137.766C138.089 43.2701 138.254 43.4146 138.254 43.7107C138.254 43.9708 138.161 44.1659 137.974 44.2887C137.787 44.4115 137.536 44.4693 137.227 44.4693H132.147V44.4765Z" fill="white"/>
<path d="M55.9777 19.9026C55.834 19.8737 55.755 19.7798 55.755 19.6353C55.755 19.4908 55.8124 19.303 55.9274 19.0718C56.4806 18.2194 57.1129 17.4753 57.8242 16.8396C58.5355 16.2039 59.2828 15.7126 60.0731 15.3659C60.8635 15.0191 61.6538 14.853 62.4513 14.853C63.2489 14.853 63.8955 15.0552 64.2979 15.4526C64.7002 15.8571 64.8942 16.4061 64.8942 17.1069C64.8942 17.6631 64.808 18.27 64.6356 18.9273C64.4631 19.5847 64.2476 20.3288 63.9745 21.174C63.7087 22.0192 63.3854 22.98 63.0118 24.0709C62.6381 25.1617 62.2286 26.4404 61.7903 27.9141L61.4239 27.8635C62.0274 25.8624 62.71 24.0636 63.4788 22.4599C64.2476 20.8562 65.0738 19.4908 65.9576 18.3566C66.8485 17.2297 67.7538 16.3556 68.6807 15.756C69.6075 15.1492 70.5488 14.8457 71.49 14.8457C72.4312 14.8457 73.121 15.1925 73.588 15.8788C74.0622 16.5651 74.249 17.4247 74.1484 18.4578C74.0838 19.2091 73.9113 19.8592 73.6239 20.401C73.3365 20.9429 72.9629 21.3691 72.4887 21.6797C72.0145 21.9903 71.5044 22.1493 70.9511 22.1493C70.3979 22.1493 69.9668 22.012 69.6578 21.7303C69.3489 21.4485 69.1908 21.0657 69.1908 20.5744C69.1908 20.2493 69.2339 19.9243 69.3273 19.6064C69.4136 19.2885 69.4638 18.9707 69.4638 18.6601C69.4638 18.3494 69.3992 18.0966 69.2698 17.9449C69.1405 17.8004 68.9609 17.7209 68.731 17.7209C68.1418 17.7209 67.4592 18.111 66.6761 18.8984C65.8929 19.6859 65.0882 20.8634 64.2548 22.4382C63.4213 24.0131 62.6741 25.9852 62.0059 28.3547C61.6322 29.4528 61.352 30.363 61.1652 31.0782C60.9784 31.8006 60.885 32.4291 60.885 32.9709C60.885 33.3321 60.964 33.6211 61.1293 33.845C61.2945 34.069 61.4454 34.2568 61.5819 34.4085C61.7185 34.5674 61.7903 34.748 61.7903 34.9575C61.7903 35.2537 61.5676 35.5788 61.1293 35.94C60.691 36.3012 60.1018 36.5902 59.3546 36.8141C58.6146 37.0381 57.7955 37.1464 56.8974 37.1464C56.2148 37.1464 55.719 37.0092 55.4173 36.7419C55.1155 36.4746 54.979 36.0628 55.0149 35.5138C55.0436 34.9648 55.2017 34.3146 55.4819 33.5633L59.3402 21.3041C59.7642 19.9459 59.9438 19.014 59.8791 18.5156C59.8145 18.0171 59.5702 17.7643 59.1462 17.7643C58.8014 17.7643 58.4349 17.8943 58.0326 18.1471C57.6302 18.4 57.0985 18.9129 56.4303 19.6786C56.3513 19.7581 56.2723 19.8159 56.2004 19.852C56.1286 19.8881 56.0495 19.9026 55.9705 19.9026H55.9777Z" fill="white"/>
<path d="M20.177 16.651C20.5173 15.7128 21.2922 14.971 22.2627 14.7601C22.5741 14.6946 22.8927 14.6582 23.2042 14.6582C24.1529 14.6582 24.8119 15.0292 25.174 15.771C25.5361 16.5128 25.6809 17.5601 25.6158 18.9129C25.5796 19.8511 25.5144 20.8548 25.4057 21.9312C25.2971 23.0003 25.1812 24.0985 25.0509 25.2185C24.9205 26.3386 24.7902 27.4222 24.6671 28.4695C24.5439 29.5168 24.4353 30.455 24.3484 31.2914C24.2615 32.1205 24.1963 32.8115 24.1674 33.3569C24.1818 33.866 24.2687 34.237 24.4281 34.4697C24.5874 34.7024 24.8409 34.8188 25.203 34.8188C25.6809 34.8188 26.2603 34.5352 26.9411 33.9751C27.6218 33.4151 28.3243 32.666 29.0485 31.7351C29.7727 30.8041 30.468 29.7787 31.127 28.6659C31.7933 27.5531 32.3437 26.4404 32.7782 25.3276C33.2127 24.2149 33.4372 23.1748 33.4589 22.2003C33.4951 21.6257 33.4082 21.1966 33.2127 20.9275C33.0172 20.6584 32.7202 20.3529 32.3292 20.0257C31.786 19.662 31.4167 19.262 31.2211 18.8256C31.0256 18.3893 30.9314 17.9092 30.9532 17.3783C31.0184 16.6874 31.308 16.0619 31.815 15.5019C32.3219 14.9419 32.9375 14.6582 33.6617 14.6582C34.4656 14.6582 35.0884 14.9783 35.5229 15.6255C35.9574 16.2656 36.1313 17.2329 36.0516 18.5202C35.9864 20.0693 35.6678 21.7057 35.0884 23.4294C34.5163 25.1531 33.7486 26.8186 32.7999 28.4332C31.8512 30.0478 30.7794 31.5096 29.5844 32.826C28.3967 34.1351 27.1366 35.1824 25.8185 35.9679C24.5005 36.7534 23.1752 37.1461 21.8426 37.1461C20.9084 37.1461 20.2277 36.8698 19.8004 36.317C19.3731 35.7643 19.1703 34.9715 19.1848 33.9315C19.1993 33.4006 19.2572 32.7315 19.3586 31.9024C19.46 31.0805 19.5686 30.1787 19.6918 29.1968C19.8149 28.215 19.938 27.204 20.0611 26.164C20.1842 25.124 20.3001 24.1203 20.4087 23.1603C20.5173 22.193 20.6043 21.3348 20.6694 20.5784C20.7056 19.7711 20.6187 19.2038 20.4232 18.8693C20.0756 18.2874 19.9742 17.291 20.2059 16.6583H20.177V16.651Z" fill="white"/>
<path fill-rule="evenodd" clip-rule="evenodd" d="M97.409 50.6572C97.7173 50.5526 98.0127 50.4523 98.295 50.3562H98.2879L98.9417 50.1106C99.1644 50.0239 99.3297 49.8361 99.3872 49.6049C99.732 48.1601 99.7823 46.7297 99.0926 45.3644L99.0782 45.3427C98.6615 44.5191 98.0292 43.8473 97.1742 43.3416C96.233 42.7781 94.99 42.5325 93.5745 42.5903C92.1591 42.6481 90.7652 43.0093 89.5007 43.6378C88.1427 44.3096 86.9356 45.2199 85.8292 46.4335C84.7227 47.6472 83.8102 49.0486 83.0917 50.6451C82.3804 52.2417 81.9205 53.9538 81.7265 55.7887C81.5038 57.7392 81.626 59.4007 82.1074 60.7877C82.5887 62.1675 83.3791 63.215 84.4784 63.9302C85.5777 64.6454 86.9284 64.9993 88.5235 64.9993C90.2838 64.9993 91.8501 64.6815 93.2368 64.0313C94.6163 63.3884 95.7947 62.4854 96.7647 61.3295C97.7346 60.1809 98.489 58.83 99.0279 57.2913C99.1069 57.1107 99.1285 56.9517 99.0782 56.8145C99.0279 56.6772 98.9561 56.5978 98.8555 56.5833C98.7405 56.5689 98.6255 56.5978 98.5034 56.67C98.3741 56.7423 98.2376 56.8795 98.0723 57.0746C97.5478 58.2376 96.9371 59.184 96.2258 59.9208C95.5145 60.6577 94.7672 61.1995 93.9769 61.5535C93.1865 61.9075 92.3459 62.0808 91.4693 62.0808C89.824 62.0808 88.6169 61.4523 87.8409 60.2026C87.0721 58.9528 86.8279 57.1324 87.1224 54.7412C87.1484 54.5418 87.1761 54.3444 87.2054 54.1492C87.5078 54.0438 87.8012 53.9425 88.0852 53.8454C88.4091 53.7346 88.7417 53.6212 89.0829 53.5048C89.8545 53.2416 90.6699 52.9634 91.5268 52.6679C91.6404 52.6287 91.7538 52.5897 91.867 52.5507L96.4589 50.9843C96.4787 50.9776 96.4977 50.9697 96.5159 50.9606C96.8246 50.8555 97.1224 50.7545 97.409 50.6572ZM95.3781 50.0779C95.445 49.8297 95.5003 49.5637 95.5432 49.2798C95.6294 48.7091 95.6869 48.0084 95.7013 47.192C95.7013 46.159 95.5288 45.321 95.1768 44.6781C94.8247 44.0279 94.3218 43.71 93.6751 43.71C92.9925 43.71 92.31 43.9701 91.6346 44.4975C90.9592 45.0248 90.3126 45.7689 89.7018 46.7297C89.0911 47.6977 88.5594 48.8608 88.114 50.2189C87.8507 51.0215 87.6276 51.8771 87.4446 52.7842L95.3781 50.0779Z" fill="white"/>
<path fill-rule="evenodd" clip-rule="evenodd" d="M51.7752 22.8056C52.0835 22.701 52.3789 22.6007 52.6613 22.5046H52.6541L53.3079 22.259C53.5306 22.1723 53.6959 21.9845 53.7534 21.7533C54.0982 20.3085 54.1485 18.8781 53.4588 17.5128L53.4444 17.4911C53.0277 16.6676 52.3954 15.9957 51.5404 15.49C50.5992 14.9266 49.3562 14.681 47.9407 14.7387C46.5253 14.7965 45.1314 15.1577 43.8669 15.7862C42.5089 16.4581 41.3018 17.3683 40.1954 18.5819C39.0889 19.7956 38.1764 21.1971 37.4579 22.7936C36.7466 24.3901 36.2868 26.1022 36.0928 27.9371C35.87 29.8876 35.9922 31.5491 36.4736 32.9362C36.955 34.3159 37.7453 35.3634 38.8446 36.0786C39.9439 36.7938 41.2947 37.1478 42.8897 37.1478C44.65 37.1478 46.2164 36.8299 47.603 36.1798C48.9826 35.5368 50.1609 34.6338 51.1309 33.478C52.1008 32.3293 52.8552 30.9784 53.3941 29.4397C53.4732 29.2591 53.4947 29.1002 53.4444 28.9629C53.3941 28.8257 53.3223 28.7462 53.2217 28.7317C53.1067 28.7173 52.9918 28.7462 52.8696 28.8184C52.7403 28.8907 52.6038 29.0279 52.4385 29.223C51.914 30.3861 51.3033 31.3324 50.592 32.0693C49.8807 32.8061 49.1334 33.3479 48.3431 33.7019C47.5528 34.0559 46.7121 34.2293 45.8356 34.2293C44.1902 34.2293 42.9831 33.6008 42.2071 32.351C41.4384 31.1012 41.1941 29.2808 41.4886 26.8896C41.5146 26.6902 41.5423 26.4928 41.5716 26.2976C41.8741 26.1923 42.1674 26.091 42.4514 25.9938C42.7753 25.8831 43.1079 25.7696 43.4492 25.6532C44.2207 25.39 45.0362 25.1118 45.893 24.8163C46.0066 24.7771 46.12 24.7381 46.2332 24.6991L50.8252 23.1327C50.8449 23.1261 50.8639 23.1181 50.8821 23.109C51.1908 23.004 51.4886 22.9029 51.7752 22.8056ZM49.7443 22.2263C49.8112 21.9781 49.8665 21.7121 49.9094 21.4282C49.9956 20.8575 50.0531 20.1568 50.0675 19.3405C50.0675 18.3074 49.8951 17.4694 49.543 16.8265C49.1909 16.1763 48.688 15.8585 48.0413 15.8585C47.3588 15.8585 46.6762 16.1185 46.0008 16.6459C45.3254 17.1733 44.6788 17.9173 44.068 18.8781C43.4573 19.8462 42.9256 21.0092 42.4802 22.3674C42.2169 23.17 41.9938 24.0256 41.8108 24.9326L49.7443 22.2263Z" fill="white"/>
<path fill-rule="evenodd" clip-rule="evenodd" d="M15.7899 22.8056C16.0982 22.701 16.3936 22.6007 16.6759 22.5046H16.6687L17.3226 22.259C17.5453 22.1723 17.7105 21.9845 17.768 21.7533C18.1129 20.3085 18.1632 18.8781 17.4734 17.5128L17.4591 17.4911C17.0423 16.6676 16.4101 15.9957 15.5551 15.49C14.6138 14.9266 13.3708 14.681 11.9554 14.7387C10.54 14.7965 9.14606 15.1577 7.88151 15.7862C6.52356 16.4581 5.31649 17.3683 4.21001 18.5819C3.10353 19.7956 2.19104 21.1971 1.47254 22.7936C0.761234 24.3901 0.301402 26.1022 0.107408 27.9371C-0.115326 29.8876 0.00681743 31.5491 0.48821 32.9362C0.969602 34.3159 1.75994 35.3634 2.85924 36.0786C3.95853 36.7938 5.30931 37.1478 6.90437 37.1478C8.66468 37.1478 10.231 36.8299 11.6177 36.1798C12.9972 35.5368 14.1755 34.6338 15.1455 33.478C16.1155 32.3293 16.8699 30.9784 17.4088 29.4397C17.4878 29.2591 17.5094 29.1002 17.4591 28.9629C17.4088 28.8257 17.3369 28.7462 17.2363 28.7317C17.1214 28.7173 17.0064 28.7462 16.8843 28.8184C16.7549 28.8907 16.6184 29.0279 16.4532 29.223C15.9287 30.3861 15.318 31.3324 14.6066 32.0693C13.8953 32.8061 13.1481 33.3479 12.3577 33.7019C11.5674 34.0559 10.7268 34.2293 9.85021 34.2293C8.20485 34.2293 6.99777 33.6008 6.22179 32.351C5.453 31.1012 5.20871 29.2808 5.50329 26.8896C5.52928 26.6902 5.55694 26.4928 5.58627 26.2976C5.8887 26.1923 6.18206 26.091 6.46608 25.9938C6.78994 25.8831 7.12258 25.7696 7.4638 25.6532C8.23538 25.39 9.0508 25.1118 9.90768 24.8163C10.0213 24.7771 10.1347 24.7381 10.2479 24.6991L14.8398 23.1327C14.8596 23.1261 14.8786 23.1181 14.8968 23.109C15.2055 23.004 15.5032 22.9029 15.7899 22.8056ZM13.7589 22.2263C13.8258 21.9781 13.8812 21.7121 13.9241 21.4282C14.0103 20.8575 14.0678 20.1568 14.0821 19.3405C14.0821 18.3074 13.9097 17.4694 13.5576 16.8265C13.2056 16.1763 12.7026 15.8585 12.056 15.8585C11.3734 15.8585 10.6908 16.1185 10.0154 16.6459C9.34006 17.1733 8.69341 17.9173 8.08269 18.8781C7.47197 19.8462 6.94029 21.0092 6.49482 22.3674C6.23156 23.17 6.00845 24.0256 5.82549 24.9326L13.7589 22.2263Z" fill="white"/>
<path fill-rule="evenodd" clip-rule="evenodd" d="M159.396 1.05088C159.089 0.998108 158.769 0.979958 158.451 0.99171C157.142 1.04905 156.236 2.28651 156.105 2.51427C155.771 3.09869 155.703 4.09799 155.949 4.7304C156.085 5.0933 156.076 5.6672 155.905 6.4568C155.129 9.43569 154.171 12.4022 153.345 15.3503C153.304 15.3305 153.263 15.3111 153.222 15.2921C152.57 14.9811 151.715 14.8256 150.656 14.8256C148.799 14.8256 147.016 15.284 145.306 16.2007C143.595 17.1011 142.064 18.3207 140.712 19.8596C139.36 21.382 138.269 23.0846 137.438 24.9672C136.624 26.8335 136.16 28.7406 136.046 30.6887C135.899 32.7842 136.225 34.3885 137.023 35.5017C137.838 36.5985 138.994 37.147 140.492 37.147C141.73 37.147 142.944 36.7786 144.133 36.0419C145.338 35.3053 146.495 34.2166 147.602 32.776C148.139 32.0777 148.657 31.2985 149.155 30.4386C149.151 30.4566 149.146 30.4745 149.141 30.4923C148.897 31.4254 148.726 32.1948 148.628 32.8006C148.531 33.3899 148.482 33.9138 148.482 34.3721C148.482 35.2562 148.726 35.9437 149.215 36.4348C149.703 36.9096 150.461 37.147 151.487 37.147C152.301 37.147 153.075 36.9914 153.808 36.6804C154.557 36.3694 155.233 35.9274 155.836 35.3544C156.455 34.765 156.968 34.0693 157.375 33.2671C157.522 32.8906 157.579 32.6123 157.546 32.4322C157.53 32.2358 157.432 32.1294 157.253 32.113C157.171 32.0803 157.09 32.0884 157.008 32.1375C156.943 32.1703 156.862 32.2521 156.764 32.3831C156.243 33.0216 155.803 33.4636 155.445 33.7091C155.103 33.9383 154.777 34.0529 154.468 34.0529C154.158 34.0529 153.93 33.9383 153.783 33.7091C153.653 33.4799 153.612 33.0952 153.661 32.555C153.726 32.0148 153.889 31.2863 154.15 30.3695C155.594 25.2201 157.021 20.0196 158.521 14.9124C158.641 14.5036 158.764 14.0892 158.887 13.669C159.07 13.0495 159.256 12.4176 159.445 11.7729C159.761 10.691 160.06 9.62816 160.346 8.59275C160.634 7.55017 160.866 6.57192 161.059 5.65328C161.351 4.33092 161.384 3.27407 161.151 2.48149C160.919 1.68891 160.331 1.21163 159.396 1.05088ZM152.573 18.104C152.509 17.6667 152.367 17.2942 152.146 16.9865C151.87 16.5772 151.332 16.3726 150.534 16.3726C149.736 16.3726 148.921 16.6509 148.091 17.2075C147.276 17.7477 146.486 18.4926 145.721 19.4421C144.955 20.3752 144.255 21.4475 143.62 22.6589C142.985 23.8704 142.463 25.1555 142.056 26.5142C141.649 27.8566 141.388 29.199 141.274 30.5414C141.144 31.982 141.258 33.0216 141.616 33.66C141.975 34.2821 142.447 34.5931 143.033 34.5931C143.603 34.5931 144.255 34.3148 144.988 33.7582C145.721 33.2016 146.47 32.424 147.236 31.4254C148.001 30.4104 148.726 29.2072 149.41 27.8157C150.094 26.4078 150.672 24.869 151.145 23.1992L152.573 18.104Z" fill="white"/>
<path fill-rule="evenodd" clip-rule="evenodd" d="M102.545 1.03232C102.238 0.979554 101.918 0.961403 101.6 0.973156C100.291 1.03049 99.3848 2.26795 99.2544 2.49571C98.9198 3.08013 98.8526 4.07943 99.0977 4.71184C99.2343 5.07474 99.2248 5.64864 99.0537 6.43824C98.833 7.28638 98.5877 8.10919 98.3568 8.9625C95.8563 17.615 93.6549 26.3417 91.3029 35.0352C91.1726 35.4608 91.1074 35.821 91.1074 36.1157C91.1074 36.394 91.1644 36.5986 91.2784 36.7296C91.4087 36.8769 91.5879 36.9506 91.8159 36.9506C91.9951 36.9506 92.158 36.9014 92.3046 36.8032C92.4675 36.7214 92.6222 36.6068 92.7688 36.4594L96.0637 33.5452C96.2542 34.5712 96.6707 35.3626 97.3131 35.9192C98.2578 36.7377 99.5202 37.147 101.1 37.147C102.566 37.147 103.983 36.7623 105.351 35.9929C106.736 35.2071 107.99 34.1348 109.114 32.776C110.254 31.4173 111.182 29.8457 111.899 28.0613C112.632 26.2769 113.088 24.3861 113.267 22.3889C113.43 20.7191 113.316 19.3276 112.925 18.2144C112.551 17.0848 111.964 16.2417 111.166 15.6851C110.368 15.1121 109.431 14.8256 108.356 14.8256C107.347 14.8256 106.353 15.0548 105.376 15.5132C104.415 15.9716 103.494 16.6182 102.615 17.4531C101.752 18.288 100.962 19.2784 100.245 20.4244C100.104 20.6502 99.9669 20.8808 99.8346 21.1162L101.431 15.5905L101.453 15.5942C101.528 15.3659 101.6 15.1323 101.67 14.8938C101.79 14.4851 101.913 14.0708 102.036 13.6507C102.219 13.0311 102.406 12.3991 102.594 11.7543C103.186 9.72903 103.774 7.70051 104.209 5.63472C104.5 4.31236 104.533 3.25551 104.3 2.46293C104.068 1.67035 103.48 1.19307 102.545 1.03232ZM105.864 17.4777C105.131 17.5268 104.39 17.8542 103.641 18.4599C102.908 19.0656 102.2 19.876 101.515 20.891C100.831 21.8896 100.212 23.0028 99.6586 24.2306C99.1048 25.4584 98.6487 26.7107 98.2904 27.9876C97.9321 29.2482 97.7122 30.4432 97.6308 31.5728C97.5167 32.8333 97.6959 33.7828 98.1683 34.4213C98.6569 35.0434 99.3247 35.3544 100.172 35.3544C100.872 35.3544 101.564 35.0925 102.248 34.5686C102.932 34.0284 103.592 33.3081 104.227 32.4077C104.863 31.5073 105.441 30.4923 105.962 29.3628C106.483 28.2332 106.915 27.0627 107.257 25.8513C107.615 24.6235 107.86 23.4284 107.99 22.2661C108.136 21.071 108.136 20.1215 107.99 19.4176C107.843 18.7137 107.583 18.2144 107.208 17.9197C106.833 17.6086 106.386 17.4613 105.864 17.4777Z" fill="white"/>
</g>
<defs>
<clipPath id="clip0_1061_2518">
<rect width="179" height="65" fill="white"/>
</clipPath>
</defs>
</svg>
